#!OML:ASF F:\VICON\USERDATA\INSTALL\rory3\rory3.ASF
:FULLY-SPECIFIED
:DEGREES
52
root 0.11414455635692958 17.616894889993294 19.626702409574385 0.5819705886428244 -1.7676757459371892 -2.7554127145700997
lfemur -25.99742572077664 -1.5890710290949923 -19.970245942524596
ltibia 38.51382887163803
lfoot -2.170154813838611 -8.599017921536145
ltoes -3.7824336633604156
rfemur 0.942699930590484 1.528978646527442 28.7903346418266
rtibia 67.4245462553032
rfoot 23.728754886985943 2.775032290706852
rtoes 10.020805281548865
lowerback 10.648573842966357 2.0040149678161012 3.3560557472986816
upperback -1.1224993991672352 3.215878197035977 0.36404507054630253
thorax -7.202888200273164 1.4284071679664958 -1.5627857285624425
lowerneck -17.412478768261053 -3.7897347777539165 -2.011318697008347
upperneck 17.971396848355134 -5.199666256507544 2.170675694674137
head 8.47012818645522 -2.3889538774032095 0.5051777244948317
lclavicle -1.6771800865592737e-15 -3.593294614752834e-15
lhumerus -52.056536843547455 3.491333137022619 85.40790996596513
lradius 54.23258843617639
lwrist 3.513526998143904
lhand -25.778951487409216 13.567269870172204
lfingers 7.125019999999999
lthumb 0.3138085575781453 43.32277968206369
rclavicle -1.6774282111425444e-15 -3.5934536061278315e-15
rhumerus -34.897664786064816 -2.8891602926977975 -91.07808945815879
rradius 74.07304277750787
rwrist -7.388473870046132
rhand -19.410244421289676 31.23471266666089
rfingers 7.125019999999999
rthumb 6.8127830078887115 0.6980223232950739
53
root 0.1984409346336019 17.814023526076518 20.555948995957877 -0.09903174862320618 -2.9070427440909175 -1.8176351585096135
lfemur -22.400057678210942 -1.388941262119697 -21.857959903812073
ltibia 38.77753643693127
lfoot -3.7735917419720915 -7.875560579816332
ltoes -2.789713810509682
rfemur -6.213731759816268 1.3864945117172902 26.622301129745352
rtibia 79.27212945806654
rfoot 30.017369304189103 -1.4954767336609667
rtoes 24.90071183165879
lowerback 11.702546740690256 2.141486373178164 2.27536204393074
upperback -0.8898243194076136 3.210974204984641 0.1395777669968601
thorax -7.690789886122294 1.4585478350769494 -1.0623487922014483
lowerneck -17.49173587217015 -3.5680544184872507 -2.0277904806554288
upperneck 17.866181369436294 -4.831241284334552 2.177207920769362
head 8.47514673011745 -2.204490078276261 0.525850237067991
lclavicle -1.6768710466713963e-15 -3.593074568493108e-15
lhumerus -50.93039070443166 2.5205589684810175 86.17222354199174
lradius 56.20258155019811
lwrist 8.941601609965154
lhand -26.12400512160395 13.218567945265804
lfingers 7.125019999999999
lthumb -0.03475631804902335 42.6938329371392
rclavicle -1.6798532907311306e-15 -3.595168420356773e-15
rhumerus -36.22899461742142 -4.0611268753072105 -90.61814986862287
rradius 72.61073104462113
rwrist -6.205225494051801
rhand -18.840035397625602 30.930675525798833
rfingers 7.125019999999999
rthumb 7.458700795536156 0.46058643683240463
54
root 0.24848142331317058 17.886362389868403 21.60133445007684 -0.6944743923202594 -3.330369352875061 -0.3248867087470726
lfemur -18.12262937916398 -1.8262469688773224 -24.26428519617591
ltibia 37.91032538923876
lfoot -5.632351270104012 -6.796712135473658
ltoes -1.6804352618766218
rfemur -13.463188865154834 0.3704259905510354 24.18458258795318
rtibia 88.4200753089699
rfoot 19.494135152021684 -6.935499244529678
rtoes 19.18992656919801
lowerback 12.489070844098087 1.9806730959184742 0.5561149933538073
upperback -0.3806159246304043 2.81794360571185 -0.11428499642050438
thorax -7.813118248259397 1.3155935897976003 -0.345760460099632
lowerneck -17.51481934954948 -3.254048428281204 -2.0604282945516856
upperneck 17.400958086623167 -4.352116639759557 2.1967227769099535
head 8.316987179112157 -1.9642232012265588 0.5769521399890626
lclavicle -1.6754837489910399e-15 -3.5920941693175694e-15
lhumerus -48.836974746686046 1.2448192772707696 87.06006159781349
lradius 57.27610438545327
lwrist 15.037013490413857
lhand -27.58941432121255 12.99330234319523
lfingers 7.125019999999999
lthumb -1.479217309986902 42.4466238153302
rclavicle -1.6784315892451304e-15 -3.594163075817663e-15
rhumerus -36.54847580929019 -4.758224671854126 -90.35849933291252
rradius 70.14166306308226
rwrist -4.706418709295727
rhand -18.439269924163067 30.319566237337085
rfingers 7.125019999999999
rthumb 7.873600905517286 -0.02325825798550149
55
root 0.2746159163182552 17.989413623902614 22.61275506642965 -1.0958976253954995 -2.637323938443429 0.3195267650977631
lfemur -13.91309203853988 -2.6258749064985563 -25.757140097840097
ltibia 36.54760851097409
lfoot -6.180277067532837 -6.055406694611367
ltoes -1.7690993688453505
rfemur -19.763715279062772 -1.3326398574191178 23.058307998891667
rtibia 92.38112755740593
rfoot 9.549256407680772 -9.581911665478478
rtoes 12.908134469244658
lowerback 12.79744109099682 1.4556975698365757 -0.24320485866344965
upperback 0.11534321974712936 2.046968275073608 -0.07766495049415867
thorax -7.691865157562037 0.9959796317295065 0.2430515133578871
lowerneck -17.415212414053112 -2.8938850916361996 -2.1387941677775637
upperneck 17.42425235046247 -3.737755454850363 1.9689046495355105
head 8.329694009946808 -1.7128630991054794 0.5687325227521303
lclavicle -1.6756106779925637e-15 -3.592183008237048e-15
lhumerus -45.57332794744052 -0.3291334428784696 87.9328693737512
lradius 59.11187727481988
lwrist 13.861837746649027
lhand -28.183243554985346 12.97327709681456
lfingers 7.125019999999999
lthumb -2.1683244365252716 42.28850824926833
rclavicle -1.677685238473012e-15 -3.593635314752361e-15
rhumerus -36.9762036062079 -5.833583888460912 -89.7855949572867
rradius 68.00838306692336
rwrist -2.65417926529872
rhand -17.969004641144277 29.81392888061724
rfingers 7.125019999999999
rthumb 8.384061066853407 -0.49663904489474137
